<?xml version="1.0" standalone="no"?><!DOCTYPE svg PUBLIC "-//W3C//DTD SVG 1.1//EN" "http://www.w3.org/Graphics/SVG/1.1/DTD/svg11.dtd"><svg t="1601119423797" class="icon" viewBox="0 0 1024 1024" version="1.1" xmlns="http://www.w3.org/2000/svg" p-id="2674" xmlns:xlink="http://www.w3.org/1999/xlink" width="200" height="200"><defs><style type="text/css"></style></defs><path d="M554.666667 375.466667c-16.1792 0-31.965867-2.1504-46.916267-6.417067-25.053867-7.3728-47.735467-21.179733-67.6864-41.130667C408.541867 296.413867 392.533333 257.8432 392.533333 213.333333c0-44.4928 16.008533-83.0464 47.547734-114.5856C471.620267 67.208533 510.173867 51.2 554.666667 51.2s83.0464 16.008533 114.5856 47.547733C700.791467 130.2528 716.8 168.8064 716.8 213.333333c0 44.509867-16.008533 83.063467-47.547733 114.5856C637.713067 359.458133 599.159467 375.466667 554.666667 375.466667z m0-256c-26.077867 0-47.7696 9.0112-66.304 27.5456C469.8112 165.563733 460.8 187.2384 460.8 213.333333s9.0112 47.786667 27.5456 66.304c11.946667 11.963733 24.507733 19.746133 38.4 23.825067A102.024533 102.024533 0 0 0 554.666667 307.2c26.077867 0 47.786667-9.0112 66.321066-27.5456C639.522133 261.12 648.533333 239.428267 648.533333 213.333333c0-26.112-8.994133-47.786667-27.528533-66.304C602.453333 128.477867 580.744533 119.466667 554.666667 119.466667z m-341.333334 256c-44.4928 0-83.0464-16.008533-114.5856-47.547734C67.208533 296.379733 51.2 257.826133 51.2 213.333333s16.008533-83.0464 47.547733-114.5856C130.286933 67.208533 168.840533 51.2 213.333333 51.2s83.0464 16.008533 114.5856 47.547733C359.458133 130.2528 375.466667 168.823467 375.466667 213.333333c0 44.4928-16.008533 83.0464-47.547734 114.5856-19.933867 19.933867-42.615467 33.757867-67.413333 41.045334-15.2064 4.352-30.993067 6.5024-47.172267 6.5024z m0-256c-26.094933 0-47.7696 9.0112-66.304 27.5456C128.477867 165.563733 119.466667 187.2384 119.466667 213.333333s9.0112 47.7696 27.5456 66.304C165.563733 298.1888 187.2384 307.2 213.333333 307.2c9.847467 0 19.336533-1.28 28.194134-3.805867 13.6192-4.010667 26.180267-11.793067 38.109866-23.739733C298.1888 261.102933 307.2 239.428267 307.2 213.333333s-9.0112-47.786667-27.5456-66.304C261.102933 128.477867 239.428267 119.466667 213.333333 119.466667z" p-id="2675" fill="#515151"></path><path d="M938.666667 955.733333a17.066667 17.066667 0 0 1-12.066134-5.000533L760.9344 785.066667H699.733333v68.266666c0 66.030933-36.369067 102.4-102.4 102.4H170.666667c-66.030933 0-102.4-36.369067-102.4-102.4V512c0-66.030933 36.369067-102.4 102.4-102.4h129.467733l-61.320533-61.320533a17.0496 17.0496 0 1 1 24.132266-24.132267L348.398933 409.6h71.202134l85.4528-85.4528a17.0496 17.0496 0 1 1 24.132266 24.132267L467.8656 409.6H597.333333c66.030933 0 102.4 36.369067 102.4 102.4v68.266667h61.201067l165.666133-165.666134A17.066667 17.066667 0 0 1 955.733333 426.666667v512a17.0496 17.0496 0 0 1-17.066666 17.066666zM170.666667 443.733333c-47.223467 0-68.266667 21.060267-68.266667 68.266667v341.333333c0 47.223467 21.0432 68.266667 68.266667 68.266667h426.666666c47.223467 0 68.266667-21.0432 68.266667-68.266667V512c0-47.2064-21.0432-68.266667-68.266667-68.266667H170.666667z m614.4 317.201067l136.533333 136.533333V467.8656l-136.533333 136.533333v156.535467zM699.733333 750.933333h51.2v-136.533333h-51.2v136.533333z" p-id="2676" fill="#515151"></path></svg>