<?xml version="1.0" standalone="no"?><!DOCTYPE svg PUBLIC "-//W3C//DTD SVG 1.1//EN" "http://www.w3.org/Graphics/SVG/1.1/DTD/svg11.dtd"><svg t="1599403932307" class="icon" viewBox="0 0 1024 1024" version="1.1" xmlns="http://www.w3.org/2000/svg" p-id="3316" xmlns:xlink="http://www.w3.org/1999/xlink" width="200" height="200"><defs><style type="text/css"></style></defs><path d="M51.31 737.587l443.212-471.078c1.327-1.327 3.096-1.769 3.981-1.769s2.654 0 3.981 1.327l471.521 443.212c11.943 11.5 30.963 10.616 42.021-1.327s10.616-30.963-1.327-42.021l-471.078-443.212c-12.827-11.943-29.194-18.135-46.887-17.693-17.251 0.442-33.617 7.962-45.56 20.347l-443.212 471.521c-5.308 5.75-7.962 13.27-7.961 20.347 0 7.962 3.096 15.924 9.289 21.674 11.943 11.5 30.963 10.616 42.021-1.327z" p-id="3317"></path></svg>